<svg width="30" height="30" viewBox="0 0 30 30" fill="none" xmlns="http://www.w3.org/2000/svg">
<path d="M28.6725 15C29.4057 15 30.0061 14.4045 29.9413 13.6742C29.7196 11.1752 28.8737 8.76415 27.472 6.66645C25.8238 4.19971 23.4811 2.27712 20.7403 1.14181C17.9994 0.0064925 14.9834 -0.290558 12.0736 0.288221C9.16393 0.866999 6.49119 2.29561 4.3934 4.3934C2.29561 6.49119 0.866999 9.16393 0.288221 12.0736C-0.290558 14.9834 0.00649254 17.9994 1.14181 20.7403C2.27712 23.4811 4.19971 25.8238 6.66645 27.472C8.76415 28.8737 11.1752 29.7196 13.6742 29.9413C14.4045 30.0061 15 29.4057 15 28.6725V28.6725C15 27.9393 14.4039 27.3524 13.675 27.2737C11.702 27.0607 9.80237 26.3743 8.14149 25.2645C6.11136 23.908 4.52907 21.98 3.59471 19.7242C2.66034 17.4685 2.41587 14.9863 2.89221 12.5916C3.36854 10.1969 4.54429 7.99725 6.27077 6.27077C7.99725 4.54429 10.1969 3.36854 12.5916 2.89221C14.9863 2.41587 17.4685 2.66034 19.7242 3.59471C21.98 4.52907 23.908 6.11136 25.2645 8.14149C26.3743 9.80237 27.0607 11.702 27.2737 13.675C27.3524 14.4039 27.9393 15 28.6725 15V15Z" fill="url(#paint0_angular_685_8991)"/>
<defs>
<radialGradient id="paint0_angular_685_8991" cx="0" cy="0" r="1" gradientUnits="userSpaceOnUse" gradientTransform="translate(15 15) rotate(90) scale(15)">
<stop offset="0.25" stop-color="#333333"/>
<stop offset="0.57" stop-color="#333333"/>
<stop offset="1" stop-color="white"/>
</radialGradient>
</defs>
</svg>
