<svg width="24" height="24" viewBox="0 0 24 24" fill="none" xmlns="http://www.w3.org/2000/svg">
<path d="M18 22.0125C15.7875 22.0125 13.9875 20.2125 13.9875 18C13.9875 15.7875 13.9875 17.4375 14.0625 17.175L8.99999 14.625C8.24999 15.45 7.19999 16.0125 5.99999 16.0125C3.78749 16.0125 1.98749 14.2125 1.98749 12C1.98749 9.78749 3.78749 7.98749 5.99999 7.98749C8.21249 7.98749 8.28749 8.51249 8.99999 9.37499L14.0625 6.82499C13.9875 6.56249 13.9875 6.26249 13.9875 5.99999C13.9875 3.78749 15.7875 1.98749 18 1.98749C20.2125 1.98749 22.0125 3.78749 22.0125 5.99999C22.0125 8.21249 20.2125 10.0125 18 10.0125C15.7875 10.0125 15.7125 9.48749 15 8.62499L9.93749 11.175C10.0125 11.4375 10.0125 11.7375 10.0125 12C10.0125 12.2625 10.0125 12.5625 9.93749 12.825L15 15.375C15.75 14.55 16.8 13.9875 18 13.9875C20.2125 13.9875 22.0125 15.7875 22.0125 18C22.0125 20.2125 20.2125 22.0125 18 22.0125ZM18 16.0125C16.9125 16.0125 16.0125 16.9125 16.0125 18C16.0125 19.0875 16.9125 19.9875 18 19.9875C19.0875 19.9875 19.9875 19.0875 19.9875 18C19.9875 16.9125 19.0875 16.0125 18 16.0125ZM5.99999 10.0125C4.91249 10.0125 4.01249 10.9125 4.01249 12C4.01249 13.0875 4.91249 13.9875 5.99999 13.9875C7.08749 13.9875 7.98749 13.0875 7.98749 12C7.98749 10.9125 7.08749 10.0125 5.99999 10.0125ZM18 4.01249C16.9125 4.01249 16.0125 4.91249 16.0125 5.99999C16.0125 7.08749 16.9125 7.98749 18 7.98749C19.0875 7.98749 19.9875 7.08749 19.9875 5.99999C19.9875 4.91249 19.0875 4.01249 18 4.01249Z" fill="#fff"/>
</svg>
