<?xml version="1.0" encoding="utf-8"?>
<!-- Generator: Adobe Illustrator 27.9.0, SVG Export Plug-In . SVG Version: 6.00 Build 0)  -->
<svg version="1.1" id="圖層_1" xmlns="http://www.w3.org/2000/svg" xmlns:xlink="http://www.w3.org/1999/xlink" x="0px" y="0px"
	 viewBox="0 0 36 36" style="enable-background:new 0 0 36 36;" xml:space="preserve">
<style type="text/css">
	.st0{fill:#FFFFFF;}
</style>
<path class="st0" d="M30,31.4c-0.4,0-0.7-0.1-1-0.4l-7.2-7.2c-1.8,1.4-4.1,2.2-6.6,2.2C9.4,26,4.7,21.2,4.7,15.4S9.5,4.7,15.4,4.7
	C21.3,4.7,26,9.5,26,15.3s-0.9,4.8-2.2,6.6l7.2,7.2c0.5,0.5,0.5,1.4,0,1.9C30.7,31.2,30.4,31.4,30,31.4z M15.4,7.4c-4.4,0-8,3.6-8,8
	s3.6,8,8,8c4.4,0,8-3.6,8-8S19.8,7.4,15.4,7.4z"/>
</svg>
