<?xml version="1.0" encoding="utf-8"?>
<!-- Generator: Adobe Illustrator 27.9.0, SVG Export Plug-In . SVG Version: 6.00 Build 0)  -->
<svg version="1.1" id="圖層_1" xmlns="http://www.w3.org/2000/svg" xmlns:xlink="http://www.w3.org/1999/xlink" x="0px" y="0px"
	 viewBox="0 0 24 24" style="enable-background:new 0 0 24 24;" xml:space="preserve">
<style type="text/css">
	.st0{fill-rule:evenodd;clip-rule:evenodd;fill:#fff;}
</style>
<path class="st0" d="M6.6,6.6V5.7C6.6,4.2,7.8,3,9.3,3h9C19.8,3,21,4.2,21,5.7v9c0,1.5-1.2,2.7-2.7,2.7h-0.9v0.9
	c0,1.5-1.2,2.7-2.7,2.7h-9C4.2,21,3,19.8,3,18.3v-9c0-1.5,1.2-2.7,2.7-2.7H6.6z M8.4,6.6V5.7c0-0.5,0.4-0.9,0.9-0.9h9
	c0.5,0,0.9,0.4,0.9,0.9v9c0,0.5-0.4,0.9-0.9,0.9h-0.9V9.3c0-1.5-1.2-2.7-2.7-2.7H8.4z M5.7,8.4c-0.5,0-0.9,0.4-0.9,0.9v9
	c0,0.5,0.4,0.9,0.9,0.9h9c0.5,0,0.9-0.4,0.9-0.9v-9c0-0.5-0.4-0.9-0.9-0.9H5.7z"/>
</svg>
