<svg width="75" height="52" viewBox="0 0 75 52" fill="none" xmlns="http://www.w3.org/2000/svg">
<g clip-path="url(#clip0_763_302)">
<rect y="6" width="74.4153" height="39.4018" rx="8" fill="#FFD526"/>
<path d="M35.9211 30.8782C29.0959 30.8782 28.9131 41.2378 35.9211 41.2378C42.929 41.2378 42.7462 30.8782 35.9211 30.8782ZM35.9211 39.8362C30.9241 39.7753 30.9241 32.2798 35.9211 32.2188C40.9181 32.3407 40.9181 39.7753 35.9211 39.8362Z" fill="white"/>
<path d="M52.3136 16.8623C51.9479 16.8623 51.5823 17.167 51.5823 17.5936V22.7734C50.7901 21.7374 49.5104 21.0062 47.8041 21.0062C44.3915 21.0062 42.6243 23.6265 42.6243 26.186C42.6243 28.7454 44.3915 31.3658 47.8041 31.3658C49.5104 31.3658 50.7901 30.6345 51.5823 29.5986V30.4517C51.5823 30.8173 51.887 31.183 52.3136 31.183C52.6792 31.183 53.0448 30.8783 53.0448 30.4517V17.5326C52.9839 17.167 52.6792 16.8623 52.3136 16.8623ZM47.8041 29.9642C45.3056 29.9033 44.0259 28.0141 44.0259 26.125C44.0259 24.2359 45.3056 22.3468 47.8041 22.2859C50.3026 22.3468 51.5823 24.2359 51.5823 26.125C51.5823 28.0751 50.3026 29.9642 47.8041 29.9642Z" fill="white"/>
<path d="M66.208 9.12292C65.8423 9.12292 65.4767 9.42762 65.4767 9.85419V10.7073C64.6845 9.67137 63.4048 9.00104 61.6985 9.00104C58.3468 8.9401 56.5796 11.5605 56.5796 14.1199C56.5796 16.6794 58.3468 19.2997 61.7594 19.2997C63.4657 19.2997 64.6845 18.5685 65.5376 17.5934V18.4466C65.5376 18.8122 65.8423 19.1779 66.2689 19.1779C66.6955 19.1779 67.0002 18.8732 67.0002 18.4466V9.85419C66.9392 9.42762 66.6345 9.12292 66.208 9.12292ZM61.7594 17.9591C59.2609 17.8981 57.9812 16.009 57.9812 14.1199C57.9812 12.2308 59.2609 10.3417 61.7594 10.2808C64.2579 10.3417 65.5376 12.2308 65.5376 14.1199C65.5376 16.009 64.2579 17.8981 61.7594 17.9591Z" fill="white"/>
<path d="M20.1379 30.9998C17.944 30.9998 16.4815 32.0357 15.6893 33.4983C14.8971 32.0967 13.3736 30.9998 11.2408 30.9998C9.65634 30.9998 8.31568 31.6701 7.46254 32.8279V31.9748C7.46254 31.6091 7.15784 31.2435 6.73127 31.2435C6.36563 31.2435 6 31.5482 6 31.9748V35.3874V36.2405V40.5672C6 40.9328 6.3047 41.2984 6.73127 41.2984C7.0969 41.2984 7.46254 40.9938 7.46254 40.5672C7.46254 39.714 7.4016 36.3014 7.52348 35.0827C7.58441 34.8389 7.64535 34.6561 7.64535 34.5342C8.1938 33.2545 9.47352 32.4623 11.1798 32.4014C13.6783 32.4623 14.958 34.3514 14.958 36.2405V40.5672C14.958 40.9328 15.2627 41.2984 15.6893 41.2984C16.0549 41.2984 16.4206 40.9938 16.4206 40.5672V36.2405C16.4206 34.3514 17.7003 32.4623 20.1988 32.4014C21.8441 32.4014 22.8801 33.1936 23.4895 34.2295C23.7942 34.8389 23.977 35.6921 23.977 36.6671V37.703V40.5672C23.977 40.9328 24.2817 41.2984 24.7083 41.2984C25.0739 41.2984 25.4395 40.9938 25.4395 40.5672V37.703V36.2405C25.3177 33.1936 23.3067 31.0607 20.1379 30.9998Z" fill="white"/>
<rect x="50" y="45.5068" width="38.9007" height="15.2762" transform="rotate(-45 50 45.5068)" fill="#1F89FE"/>
<path d="M57.8718 39.0918C58.2301 38.7335 58.5638 38.4677 58.8731 38.2942C59.1823 38.1132 59.4727 38.0377 59.7442 38.0679C60.0158 38.0905 60.2779 38.2282 60.5305 38.4809C60.6814 38.6317 60.7945 38.7939 60.8699 38.9673C60.9454 39.1408 60.9755 39.3143 60.9604 39.4878C60.9491 39.6575 60.8888 39.8196 60.7794 39.9743L60.8077 40.0025C60.9699 39.8932 61.1396 39.8178 61.3168 39.7763C61.4941 39.7348 61.6789 39.7461 61.8712 39.8102C62.0635 39.8743 62.2653 40.012 62.4765 40.2232C62.7216 40.4683 62.8725 40.7398 62.929 41.0378C62.9856 41.3281 62.9498 41.6317 62.8216 41.9485C62.6896 42.2615 62.4708 42.5708 62.1654 42.8762L60.655 44.3866L56.616 40.3476L57.8718 39.0918ZM59.5689 40.5965C59.8178 40.3476 59.9498 40.1364 59.9648 39.9629C59.9837 39.7857 59.9177 39.6217 59.7668 39.4708C59.6122 39.3162 59.4444 39.2615 59.2634 39.3068C59.0824 39.352 58.8693 39.4972 58.6242 39.7423L58.1716 40.1949L59.0711 41.0943L59.5689 40.5965ZM59.7499 41.7731L60.8021 42.8253L61.3621 42.2653C61.6185 42.0088 61.7486 41.7807 61.7524 41.5808C61.7524 41.3772 61.6694 41.1924 61.5035 41.0264C61.4017 40.9246 61.2904 40.8586 61.1697 40.8284C61.0528 40.7945 60.9208 40.8096 60.7738 40.8737C60.6267 40.9378 60.4626 41.0604 60.2816 41.2414L59.7499 41.7731ZM66.7806 38.2609L64.4557 40.5859L60.4167 36.5469L62.7416 34.2219L63.4431 34.9234L61.9723 36.3942L62.8604 37.2823L64.2294 35.9133L64.9309 36.6148L63.5619 37.9838L64.6028 39.0246L66.0735 37.5538L66.7806 38.2609ZM69.1767 35.8649L68.3225 36.7191L64.9963 33.3928L63.8989 34.4903L63.1861 33.7775L66.2352 30.7284L66.9479 31.4412L65.8505 32.5386L69.1767 35.8649ZM72.9713 32.0703L71.7155 31.4028L70.2447 32.8736L70.9122 34.1294L69.9901 35.0515L67.3597 29.57L68.4062 28.5235L73.8933 31.1482L72.9713 32.0703ZM69.5602 30.2431C69.4772 30.1979 69.3716 30.1413 69.2434 30.0734C69.1152 30.0056 68.9851 29.9358 68.8531 29.8641C68.7211 29.7925 68.608 29.7284 68.5137 29.6718C68.5702 29.7661 68.6381 29.8868 68.7173 30.0338C68.7965 30.1734 68.8719 30.3091 68.9436 30.4411C69.0152 30.5656 69.0643 30.6561 69.0907 30.7127L69.7412 31.9402L70.7934 30.888L69.5602 30.2431Z" fill="white"/>
</g>
<defs>
<clipPath id="clip0_763_302">
<rect y="6" width="74.4153" height="39.4018" rx="8" fill="white"/>
</clipPath>
</defs>
</svg>
