<?xml version="1.0" encoding="utf-8"?>
<!-- Generator: Adobe Illustrator 27.9.0, SVG Export Plug-In . SVG Version: 6.00 Build 0)  -->
<svg version="1.1" id="圖層_1" xmlns="http://www.w3.org/2000/svg" xmlns:xlink="http://www.w3.org/1999/xlink" x="0px" y="0px"
	 viewBox="0 0 106 66" style="enable-background:new 0 0 106 66;" xml:space="preserve">
<style type="text/css">
	.st0{fill:#FFD526;}
</style>
<g>
	<path class="st0" d="M51.9,43c-11.8,0-12.1,18,0,18C64,61,63.6,43,51.9,43z M51.9,58.6c-8.7-0.2-8.7-13.1,0-13.2
		C60.5,45.5,60.5,58.4,51.9,58.6z"/>
	<path class="st0" d="M80.2,18.7c-0.3,0-0.6,0.1-0.9,0.4c-0.2,0.2-0.4,0.5-0.4,0.9v9c-0.8-1-1.8-1.8-2.9-2.3
		c-1.1-0.5-2.4-0.8-3.6-0.7c-5.9,0-8.9,4.5-9,9c0,4.5,3,9,9,9c1.2,0,2.5-0.2,3.6-0.7c1.1-0.5,2.1-1.3,2.9-2.3v1.5
		c0,0.2,0,0.3,0.1,0.5c0.1,0.2,0.1,0.3,0.3,0.4c0.1,0.1,0.3,0.2,0.4,0.3c0.2,0.1,0.3,0.1,0.5,0.1s0.3,0,0.5-0.1
		c0.2-0.1,0.3-0.2,0.4-0.3c0.1-0.1,0.2-0.3,0.3-0.4c0.1-0.2,0.1-0.3,0.1-0.5V19.9c0-0.3-0.1-0.6-0.3-0.8
		C80.9,18.9,80.6,18.7,80.2,18.7L80.2,18.7z M72.5,41.5c-0.9,0-1.7-0.1-2.5-0.5c-0.8-0.3-1.5-0.8-2.1-1.4c-0.6-0.6-1.1-1.4-1.4-2.2
		c-0.3-0.8-0.5-1.7-0.4-2.5c0-0.9,0.1-1.7,0.4-2.6c0.3-0.8,0.8-1.6,1.4-2.2c0.6-0.6,1.3-1.1,2.1-1.5c0.8-0.3,1.7-0.5,2.5-0.5
		c0.9,0,1.7,0.2,2.5,0.5c0.8,0.3,1.5,0.8,2.1,1.5c0.6,0.6,1.1,1.4,1.4,2.2c0.3,0.8,0.5,1.7,0.4,2.6c0,0.9-0.1,1.7-0.4,2.5
		c-0.3,0.8-0.8,1.5-1.4,2.2c-0.6,0.6-1.3,1.1-2.1,1.4C74.2,41.3,73.4,41.5,72.5,41.5L72.5,41.5z"/>
	<path class="st0" d="M104.3,5.3c-0.3,0-0.6,0.1-0.9,0.4c-0.2,0.2-0.4,0.5-0.4,0.9V8c-0.8-1-1.8-1.7-2.9-2.3C99,5.2,97.8,5,96.6,5
		c-5.9,0-8.9,4.5-9,9c0,4.5,3.1,9,9,9c1.2,0,2.5-0.2,3.6-0.7c1.1-0.5,2.1-1.3,2.9-2.3v1.5c0,0.3,0.1,0.6,0.4,0.9
		c0.2,0.2,0.5,0.4,0.9,0.4c0.3,0,0.6-0.1,0.9-0.4c0.2-0.2,0.4-0.5,0.4-0.9V6.5c0-0.3-0.1-0.6-0.4-0.9C105,5.4,104.6,5.3,104.3,5.3
		L104.3,5.3z M96.5,20.6c-0.9,0-1.7-0.1-2.5-0.5c-0.8-0.3-1.5-0.8-2.1-1.4s-1.1-1.4-1.4-2.2C90.2,15.7,90,14.9,90,14
		c0-0.9,0.1-1.7,0.4-2.6c0.3-0.8,0.8-1.6,1.4-2.2c0.6-0.6,1.3-1.1,2.1-1.5c0.8-0.3,1.7-0.5,2.5-0.5s1.7,0.2,2.5,0.5
		c0.8,0.3,1.5,0.8,2.1,1.5c0.6,0.6,1.1,1.4,1.4,2.2c0.3,0.8,0.5,1.7,0.4,2.6c0,0.9-0.1,1.7-0.4,2.5c-0.3,0.8-0.8,1.5-1.4,2.2
		c-0.6,0.6-1.3,1.1-2.1,1.4C98.3,20.5,97.4,20.6,96.5,20.6L96.5,20.6z"/>
	<path class="st0" d="M24.5,43.3c-1.6-0.1-3.1,0.3-4.5,1.1c-1.4,0.8-2.5,1.9-3.3,3.3c-0.8-1.4-1.9-2.5-3.3-3.3
		c-1.4-0.8-2.9-1.1-4.5-1.1c-1.3,0-2.5,0.2-3.6,0.8c-1.1,0.5-2.1,1.4-2.9,2.4v-1.5c0-0.3-0.1-0.6-0.4-0.9c-0.2-0.2-0.5-0.4-0.9-0.4
		c-0.3,0-0.6,0.1-0.9,0.4C0.1,44.3,0,44.6,0,44.9v14.8c0,0.3,0.1,0.6,0.4,0.9S0.9,61,1.2,61c0.3,0,0.6-0.1,0.9-0.4
		c0.2-0.2,0.4-0.5,0.4-0.9c0-1.4-0.1-7.4,0.1-9.5c0-0.3,0.1-0.6,0.2-0.9c0.9-2.2,3.1-3.6,6.2-3.7c0.9,0,1.7,0.1,2.5,0.4
		c0.8,0.3,1.5,0.8,2.2,1.4c0.6,0.6,1.1,1.3,1.4,2.2c0.3,0.8,0.5,1.7,0.5,2.5v7.5c0,0.3,0.1,0.6,0.4,0.9c0.2,0.2,0.5,0.4,0.9,0.4
		c0.3,0,0.6-0.1,0.9-0.4c0.2-0.2,0.4-0.5,0.4-0.9v-7.5c0-0.9,0.1-1.7,0.4-2.5c0.3-0.8,0.8-1.5,1.4-2.2c0.6-0.6,1.3-1.1,2.1-1.4
		c0.8-0.3,1.7-0.5,2.5-0.5c1.1-0.1,2.3,0.2,3.3,0.8c1,0.6,1.8,1.4,2.4,2.4c0.6,1.3,0.9,2.8,0.9,4.2v6.7c0,0.3,0.1,0.6,0.4,0.9
		c0.2,0.2,0.5,0.4,0.9,0.4c0.3,0,0.6-0.1,0.9-0.4c0.2-0.2,0.4-0.5,0.4-0.9v-7.5C33.5,47,30,43.4,24.5,43.3z"/>
</g>
</svg>
